HIERARCHY
ROOT Hips
{
	OFFSET 0.00000 0.00000 0.00000
	CHANNELS 6 Xposition Yposition Zposition Zrotation Yrotation Xrotation 
	JOINT LHipJoint
	{
		OFFSET 0 0 0
		CHANNELS 3 Zrotation Yrotation Xrotation
		JOINT LeftUpLeg
		{
			OFFSET 1.34019 -1.87553 0.90315
			CHANNELS 3 Zrotation Yrotation Xrotation
			JOINT LeftLeg
			{
				OFFSET 2.55316 -7.01474 0.00000
				CHANNELS 3 Zrotation Yrotation Xrotation
				JOINT LeftFoot
				{
					OFFSET 2.64657 -7.27139 0.00000
					CHANNELS 3 Zrotation Yrotation Xrotation
					JOINT LeftToeBase
					{
						OFFSET 0.24207 -0.66507 2.14489
						CHANNELS 3 Zrotation Yrotation Xrotation
						End Site
						{
							OFFSET 0.00000 -0.00000 1.12451
						}
					}
				}
			}
		}
	}
	JOINT RHipJoint
	{
		OFFSET 0 0 0
		CHANNELS 3 Zrotation Yrotation Xrotation
		JOINT RightUpLeg
		{
			OFFSET -1.28320 -1.87553 0.90315
			CHANNELS 3 Zrotation Yrotation Xrotation
			JOINT RightLeg
			{
				OFFSET -2.60484 -7.15674 0.00000
				CHANNELS 3 Zrotation Yrotation Xrotation
				JOINT RightFoot
				{
					OFFSET -2.60296 -7.15159 0.00000
					CHANNELS 3 Zrotation Yrotation Xrotation
					JOINT RightToeBase
					{
						OFFSET -0.31082 -0.85398 2.28998
						CHANNELS 3 Zrotation Yrotation Xrotation
						End Site
						{
							OFFSET -0.00000 -0.00000 1.21611
						}
					}
				}
			}
		}
	}
	JOINT LowerBack
	{
		OFFSET 0 0 0
		CHANNELS 3 Zrotation Yrotation Xrotation
		JOINT Spine
		{
			OFFSET -0.00160 2.05581 -0.15156
			CHANNELS 3 Zrotation Yrotation Xrotation
			JOINT Spine1
			{
				OFFSET 0.04594 2.06326 -0.01617
				CHANNELS 3 Zrotation Yrotation Xrotation
				JOINT Neck
				{
					OFFSET 0 0 0
					CHANNELS 3 Zrotation Yrotation Xrotation
					JOINT Neck1
					{
						OFFSET 0.03753 1.73883 0.26751
						CHANNELS 3 Zrotation Yrotation Xrotation
						JOINT Head
						{
							OFFSET -0.09795 1.76129 -0.31794
							CHANNELS 3 Zrotation Yrotation Xrotation
							End Site
							{
								OFFSET -0.03611 1.79987 -0.13846
							}
						}
					}
				}
				JOINT LeftShoulder
				{
					OFFSET 0 0 0
					CHANNELS 3 Zrotation Yrotation Xrotation
					JOINT LeftArm
					{
						OFFSET 3.30667 1.29205 -0.22445
						CHANNELS 3 Zrotation Yrotation Xrotation
						JOINT LeftForeArm
						{
							OFFSET 4.92785 -0.00000 -0.00000
							CHANNELS 3 Zrotation Yrotation Xrotation
							JOINT LeftHand
							{
								OFFSET 3.44052 -0.00000 0.00000
								CHANNELS 3 Zrotation Yrotation Xrotation
								JOINT LeftFingerBase
								{
									OFFSET 0 0 0
									CHANNELS 3 Zrotation Yrotation Xrotation
									JOINT LeftHandIndex1
									{
										OFFSET 0.65433 -0.00000 0.00000
										CHANNELS 3 Zrotation Yrotation Xrotation
										End Site
										{
											OFFSET 0.52753 -0.00000 0.00000
										}
									}
								}
								JOINT LThumb
								{
									OFFSET 0 0 0
									CHANNELS 3 Zrotation Yrotation Xrotation
									End Site
									{
										OFFSET 0.53559 -0.00000 0.53559
									}
								}
							}
						}
					}
				}
				JOINT RightShoulder
				{
					OFFSET 0 0 0
					CHANNELS 3 Zrotation Yrotation Xrotation
					JOINT RightArm
					{
						OFFSET -3.20032 1.49783 -0.27688
						CHANNELS 3 Zrotation Yrotation Xrotation
						JOINT RightForeArm
						{
							OFFSET -5.09181 -0.00000 -0.00000
							CHANNELS 3 Zrotation Yrotation Xrotation
							JOINT RightHand
							{
								OFFSET -3.49865 -0.00000 -0.00000
								CHANNELS 3 Zrotation Yrotation Xrotation
								JOINT RightFingerBase
								{
									OFFSET 0 0 0
									CHANNELS 3 Zrotation Yrotation Xrotation
									JOINT RightHandIndex1
									{
										OFFSET -0.66641 -0.00000 0.00000
										CHANNELS 3 Zrotation Yrotation Xrotation
										End Site
										{
											OFFSET -0.53728 -0.00000 0.00000
										}
									}
								}
								JOINT RThumb
								{
									OFFSET 0 0 0
									CHANNELS 3 Zrotation Yrotation Xrotation
									End Site
									{
										OFFSET -0.54548 -0.00000 0.54548
									}
								}
							}
						}
					}
				}
			}
		}
	}
}
MOTION
Frames: 6
Frame Time: .0083333
-1.6342 17.4437 -25.2256 -3.0511 6.9302 11.0043 0.0000 0.0000 0.0000 -11.4549 -14.0987 -45.0461 3.2046 11.0191 32.3445 0.1971 3.0987 -10.1198 1.0279 -6.4493 -18.0938 0.0000 0.0000 0.0000 28.7242 -3.4929 4.3305 -0.9046 -6.0610 16.9614 1.4939 -24.6289 -23.2675 -0.4389 4.2513 -11.7846 4.1163 1.1144 8.9465 3.3005 2.1895 -1.8294 0.8339 0.9795 -6.9382 7.1100 -0.7084 -20.1438 -12.3417 -0.3893 18.0438 -5.5246 -1.0578 8.9268 -0.0000 -0.0000 0.0000 -88.9156 13.6724 18.4928 14.7355 -23.7764 -3.1185 -0.0000 0.0000 -8.9884 14.7170 0.9763 0.2564 -7.1250 0.0000 -0.0000 -9.4078 30.9091 3.2784 -0.0000 -0.0000 0.0000 84.0173 1.9820 16.2245 -12.7260 20.8844 -2.3547 0.0000 -0.0000 -6.2119 -17.2708 -4.2753 1.3278 7.1250 -0.0000 -0.0000 7.7209 -34.3766 2.0284
-1.6364 17.4351 -25.1022 -3.2670 6.9803 11.0918 0.0000 0.0000 0.0000 -11.0209 -14.5862 -45.2582 2.8388 10.4294 30.3787 0.1679 3.3915 -9.7548 1.0211 -6.4286 -18.0331 0.0000 0.0000 0.0000 28.9947 -3.6028 4.2364 -0.9635 -6.2499 17.5113 1.5612 -24.7123 -22.7152 -0.4856 4.4684 -12.3983 4.2576 1.2264 9.2605 3.3474 2.3693 -1.6465 0.7717 1.0640 -6.9178 7.1817 -0.7596 -20.4722 -12.3292 -0.5254 17.7514 -5.5451 -1.1219 8.8707 0.0000 0.0000 0.0000 -88.7718 13.6252 18.1354 14.3884 -23.2872 -2.9799 -0.0000 0.0000 -8.3516 14.5344 0.9542 0.2474 -7.1250 0.0000 -0.0000 -9.5493 30.8832 3.3349 0.0000 0.0000 0.0000 83.8771 2.8226 16.5001 -13.1099 21.4480 -2.4933 0.0000 -0.0000 -6.7986 -17.1796 -3.9167 1.2098 7.1250 -0.0000 -0.0000 7.7544 -34.0012 2.1086
-1.6385 17.4242 -24.9756 -3.4719 6.9878 11.1451 0.0000 0.0000 0.0000 -10.5797 -15.0419 -45.4248 2.5178 9.8702 28.5575 0.1435 3.8554 -9.6299 0.9920 -6.3389 -17.7709 0.0000 0.0000 0.0000 29.2290 -3.6993 4.1398 -1.0354 -6.4719 18.1599 1.6207 -24.7548 -22.1211 -0.5340 4.6825 -13.0051 4.3664 1.3580 9.5856 3.3827 2.5681 -1.4004 0.7118 1.1604 -6.8355 7.2418 -0.8057 -20.9855 -12.2826 -0.6635 17.5164 -5.5596 -1.1893 8.8670 0.0000 -0.0000 0.0000 -88.6094 13.4636 17.7505 14.0356 -22.7855 -2.8419 -0.0000 0.0000 -7.6435 14.3167 0.9008 0.2299 -7.1250 0.0000 -0.0000 -9.7149 30.8249 3.4080 0.0000 -0.0000 0.0000 83.7484 3.7900 16.6444 -13.4847 21.9933 -2.6321 0.0000 -0.0000 -7.2853 -17.1049 -3.5987 1.1066 7.1250 -0.0000 -0.0000 7.7798 -33.6689 2.1788
-1.6404 17.4108 -24.8451 -3.6749 6.9627 11.1740 0.0000 0.0000 0.0000 -10.1547 -15.4291 -45.5822 2.2424 9.3536 26.9079 0.1195 4.4463 -9.6606 0.9501 -6.2074 -17.3873 0.0000 0.0000 0.0000 29.4343 -3.7951 4.0586 -1.1152 -6.7087 18.8551 1.6688 -24.7395 -21.4793 -0.5827 4.8879 -13.5890 4.4568 1.4947 9.9160 3.4116 2.7698 -1.1268 0.6542 1.2597 -6.7266 7.3246 -0.8225 -21.6117 -12.2351 -0.7696 17.3468 -5.5801 -1.2433 8.9085 0.0000 0.0000 0.0000 -88.4468 13.2744 17.3149 13.7010 -22.3056 -2.7136 -0.0000 0.0000 -6.9217 14.0923 0.8755 0.2198 -7.1250 0.0000 -0.0000 -9.8887 30.7951 3.4777 0.0000 0.0000 0.0000 83.6264 4.8184 16.7693 -13.8709 22.5498 -2.7784 0.0000 -0.0000 -7.7994 -17.1195 -3.4296 1.0556 7.1250 -0.0000 -0.0000 7.7495 -33.4941 2.2032
-1.6420 17.3953 -24.7103 -3.8539 6.9083 11.1795 0.0000 0.0000 0.0000 -9.7988 -15.7250 -45.7372 2.0110 8.8889 25.4485 0.0967 5.1063 -9.8362 0.9154 -6.0962 -17.0639 0.0000 0.0000 0.0000 29.5893 -3.8947 4.0243 -1.1975 -6.9433 19.5476 1.7068 -24.6729 -20.7876 -0.6307 5.0816 -14.1414 4.4976 1.6216 10.2453 3.4395 2.9520 -0.8500 0.6256 1.3515 -6.6156 7.3392 -0.8501 -22.1774 -12.1191 -0.8803 17.1891 -5.5641 -1.2948 8.9429 0.0000 0.0000 0.0000 -88.3116 13.1129 16.7789 13.3767 -21.8366 -2.5917 -0.0000 0.0000 -6.1953 13.8497 0.8596 0.2119 -7.1250 0.0000 -0.0000 -10.0774 30.7745 3.5510 0.0000 0.0000 0.0000 83.4969 5.8373 16.9239 -14.2662 23.1140 -2.9318 0.0000 -0.0000 -8.3268 -17.2178 -3.3668 1.0426 7.1250 -0.0000 -0.0000 7.6630 -33.4325 2.1898
-1.6427 17.3784 -24.5693 -3.9885 6.8272 11.1739 0.0000 0.0000 0.0000 -9.5529 -15.9195 -45.8990 1.8217 8.4843 24.1952 0.0762 5.7687 -10.1285 0.8869 -6.0029 -16.7930 0.0000 0.0000 0.0000 29.6683 -4.0144 4.0518 -1.2770 -7.1618 20.1956 1.7289 -24.5427 -20.0847 -0.6760 5.2573 -14.6439 4.4720 1.7290 10.5221 3.4641 3.0973 -0.5964 0.6370 1.4275 -6.5029 7.3606 -0.8530 -22.5727 -12.0101 -0.9487 17.0274 -5.5416 -1.3224 8.9499 0.0000 -0.0000 0.0000 -88.2140 13.0661 16.1485 13.0832 -21.4090 -2.4836 -0.0000 0.0000 -5.5244 13.5900 0.9430 0.2279 -7.1250 0.0000 -0.0000 -10.2908 30.8541 3.6084 0.0000 -0.0000 0.0000 83.3591 6.7754 17.1520 -14.6673 23.6807 -3.0911 0.0000 -0.0000 -8.8696 -17.4120 -3.3904 1.0625 7.1250 -0.0000 -0.0000 7.5082 -33.4637 2.1392
